<svg xmlns="http://www.w3.org/2000/svg" xmlns:xlink="http://www.w3.org/1999/xlink" width="20px" height="22px" class="mr-3">
    <path fill-rule="evenodd" fill="rgb(207, 192, 190)" d="M16.006,22.011 L3.991,22.011 C1.782,22.011 -0.014,20.216 -0.014,18.009 L-0.014,5.002 C-0.014,3.346 1.333,2.000 2.990,2.000 C3.543,2.000 3.991,2.449 3.991,3.001 C3.991,3.553 3.543,4.001 2.990,4.001 C2.437,4.001 1.988,4.450 1.988,5.002 L1.988,8.065 L18.009,8.065 L18.009,5.002 C18.009,4.450 17.560,4.001 17.008,4.001 C16.454,4.001 16.006,3.553 16.006,3.001 C16.006,2.449 16.454,2.000 17.008,2.000 C18.664,2.000 20.012,3.346 20.012,5.002 L20.012,18.009 C20.012,20.216 18.215,22.011 16.006,22.011 ZM18.009,10.067 L1.988,10.067 L1.988,18.009 C1.988,19.112 2.887,20.011 3.991,20.011 L16.006,20.011 C17.110,20.011 18.009,19.112 18.009,18.009 L18.009,10.067 ZM15.005,14.007 L12.001,14.007 C11.448,14.007 11.000,13.558 11.000,13.006 C11.000,12.454 11.448,12.005 12.001,12.005 L15.005,12.005 C15.559,12.005 16.006,12.454 16.006,13.006 C16.006,13.558 15.559,14.007 15.005,14.007 ZM7.996,18.009 L4.992,18.009 C4.439,18.009 3.991,17.561 3.991,17.009 C3.991,16.456 4.439,16.008 4.992,16.008 L7.996,16.008 C8.550,16.008 8.997,16.456 8.997,17.009 C8.997,17.561 8.550,18.009 7.996,18.009 ZM7.996,14.007 L4.992,14.007 C4.439,14.007 3.991,13.558 3.991,13.006 C3.991,12.454 4.439,12.005 4.992,12.005 L7.996,12.005 C8.550,12.005 8.997,12.454 8.997,13.006 C8.997,13.558 8.550,14.007 7.996,14.007 ZM13.003,6.003 C12.449,6.003 12.001,5.554 12.001,5.002 L12.001,0.999 C12.001,0.447 12.449,-0.001 13.003,-0.001 C13.556,-0.001 14.004,0.447 14.004,0.999 L14.004,5.002 C14.004,5.554 13.556,6.003 13.003,6.003 ZM6.995,6.003 C6.442,6.003 5.994,5.554 5.994,5.002 L5.994,0.999 C5.994,0.447 6.442,-0.001 6.995,-0.001 C7.548,-0.001 7.996,0.447 7.996,0.999 L7.996,5.002 C7.996,5.554 7.548,6.003 6.995,6.003 Z"></path>
</svg>