<svg xmlns="http://www.w3.org/2000/svg" xmlns:xlink="http://www.w3.org/1999/xlink" viewBox="0 0 135 135" width="24" height="24" class="ml-n5 mr-2">
    <filter filterUnits="userSpaceOnUse" id="Filter_nav_44" x="1.5px" y="30px" width="94px" height="102px">
        <feOffset in="SourceAlpha" dx="0" dy="7"></feOffset>
        <feGaussianBlur result="blurOut" stdDeviation="0"></feGaussianBlur>
        <feFlood flood-color="rgb(0, 0, 0)" result="floodOut"></feFlood>
        <feComposite operator="atop" in="floodOut" in2="blurOut"></feComposite>
        <feComponentTransfer><feFuncA type="linear" slope="0.12"></feFuncA></feComponentTransfer>
        <feMerge>
            <feMergeNode></feMergeNode>
            <feMergeNode in="SourceGraphic"></feMergeNode>
        </feMerge>
    </filter>
    <filter filterUnits="userSpaceOnUse" id="Filter_nav_45" x="-17.5px" y="-14px" width="164px" height="178px">
        <feOffset in="SourceAlpha" dx="0" dy="7"></feOffset>
        <feGaussianBlur result="blurOut" stdDeviation="0"></feGaussianBlur>
        <feFlood flood-color="rgb(0, 0, 0)" result="floodOut"></feFlood>
        <feComposite operator="atop" in="floodOut" in2="blurOut"></feComposite>
        <feComponentTransfer><feFuncA type="linear" slope="0.1"></feFuncA></feComponentTransfer>
        <feMerge>
            <feMergeNode></feMergeNode>
            <feMergeNode in="SourceGraphic"></feMergeNode>
        </feMerge>
    </filter>

    
    <g filter="url(#Filter_nav_44)">
        <path fill-rule="evenodd" stroke-width="3px" stroke="rgb(84, 116, 128)" fill="rgb(255, 255, 255)" d="M32.594,119.322 C13.547,109.224 1.767,92.165 6.569,70.307 C10.895,50.617 28.730,30.838 50.425,34.449 C67.146,37.232 69.671,50.250 75.021,57.765 C83.376,69.501 95.546,76.225 90.172,94.477 C79.927,129.274 46.942,126.929 32.594,119.322 Z"></path>
    </g>
    <path fill-rule="evenodd" stroke-width="3px" stroke="rgb(84, 116, 128)" fill="rgb(255, 232, 138)" d="M41.943,59.008 C52.880,58.997 61.736,67.814 61.725,78.702 C61.713,89.590 52.838,98.426 41.902,98.438 C30.965,98.449 22.109,89.632 22.120,78.744 C22.131,67.856 31.007,59.020 41.943,59.008 Z"></path>
    <path fill-rule="evenodd" stroke="rgb(255, 255, 255)" stroke-width="3px" stroke-linecap="round" stroke-linejoin="miter" fill="none" d="M28.683,79.604 C27.748,75.305 30.500,68.751 36.501,67.417 "></path>
    <path fill-rule="evenodd" fill="rgb(255, 255, 255)" d="M40.684,66.513 C40.514,65.622 41.097,64.760 41.987,64.586 C42.877,64.413 43.736,64.994 43.905,65.884 C44.075,66.774 43.492,67.637 42.602,67.810 C41.712,67.984 40.853,67.403 40.684,66.513 Z"></path>
    <g filter="url(#Filter_nav_45)">
        <path fill-rule="evenodd" stroke-width="3px" stroke="rgb(90, 115, 127)" fill="rgb(255, 151, 86)" d="M85.192,71.097 C88.174,76.673 97.481,85.621 103.183,92.658 C103.724,93.325 103.196,94.309 102.342,94.238 C89.676,93.186 73.022,85.899 61.391,74.266 C51.362,64.233 44.533,52.310 42.163,40.696 C39.971,29.954 41.920,20.883 47.648,15.152 C53.377,9.422 62.445,7.474 73.183,9.666 C84.794,12.036 96.713,18.867 106.743,28.900 C118.374,40.536 125.660,57.197 126.710,69.863 C126.781,70.718 125.797,71.246 125.130,70.706 C118.094,65.001 109.150,55.690 103.575,52.709 C99.862,50.723 96.588,49.437 93.846,48.888 C88.506,47.819 85.399,49.582 83.733,51.249 C82.067,52.915 80.305,56.024 81.373,61.365 C81.922,64.108 83.206,67.382 85.192,71.097 Z"></path>
        <path fill-rule="evenodd" fill="rgb(255, 255, 255)" d="M67.861,35.160 C69.927,33.094 73.268,33.086 75.324,35.143 C77.380,37.199 77.372,40.541 75.306,42.607 C73.241,44.673 69.899,44.681 67.844,42.625 C65.788,40.568 65.796,37.226 67.861,35.160 Z"></path>
        <path fill-rule="evenodd" fill="rgb(85, 116, 128)" d="M123.792,77.271 C124.326,77.536 124.944,77.435 125.350,77.028 L127.764,74.613 C130.543,71.834 131.500,67.811 130.261,64.116 L126.791,53.656 L120.758,40.275 C119.856,37.577 118.878,35.502 116.727,33.345 L95.291,12.704 C90.478,7.866 84.218,4.776 79.807,3.035 C79.453,2.916 71.476,0.266 66.907,0.266 C66.907,0.266 66.906,0.266 66.905,0.266 L66.744,0.288 C57.147,0.000 48.439,3.322 42.129,9.633 C35.817,15.946 32.500,24.650 32.791,34.140 L32.772,34.378 C33.126,41.114 35.431,47.055 35.528,47.305 C37.270,51.717 40.360,57.985 45.192,62.793 L65.846,84.249 C67.991,86.390 70.067,87.370 72.720,88.255 L86.203,94.330 C86.209,94.330 88.573,95.149 90.770,95.982 L91.006,95.920 L96.602,97.776 C100.242,99.000 104.353,98.030 107.075,95.306 L109.515,92.866 C109.921,92.459 110.022,91.841 109.767,91.327 L98.490,66.001 L123.792,77.271 ZM124.069,53.920 L127.729,64.957 C128.633,67.653 127.914,70.698 125.898,72.714 L124.158,74.455 L97.137,62.305 L97.671,61.449 C98.465,60.176 99.408,58.989 100.476,57.922 C100.903,57.493 101.364,57.072 101.843,56.674 C106.627,52.744 116.606,52.265 123.573,53.810 L124.069,53.920 ZM116.822,38.104 L117.182,38.195 L117.372,38.515 C117.773,39.192 117.868,39.649 117.967,40.133 C118.023,40.399 118.082,40.691 118.209,41.069 L123.235,50.974 L121.645,50.751 C113.202,49.565 103.542,51.832 100.158,54.612 C99.617,55.060 99.089,55.541 98.589,56.040 C97.474,57.156 96.476,58.390 95.623,59.705 L95.017,60.642 L86.966,52.590 L87.033,52.144 C87.313,50.255 88.357,45.468 91.983,41.841 C92.672,41.152 93.430,40.529 94.236,39.991 C102.380,34.554 116.236,37.957 116.822,38.104 ZM100.088,21.286 L114.461,34.786 L111.827,34.490 C105.974,33.831 97.893,34.347 92.760,37.775 C91.805,38.411 90.909,39.146 90.096,39.959 C87.197,42.859 85.751,46.357 85.050,48.781 L84.625,50.249 L77.966,43.588 L78.320,42.988 C80.017,40.102 79.743,36.423 77.637,33.833 L77.247,33.353 L77.560,32.815 C78.741,30.780 80.181,28.900 81.839,27.228 C86.731,22.335 96.746,21.459 99.700,21.306 L100.088,21.286 ZM84.940,8.549 L85.707,9.024 C88.327,10.643 91.296,12.479 93.398,14.585 L97.565,18.752 L95.775,19.005 C90.741,19.715 83.912,21.390 79.960,25.341 C78.247,27.065 76.743,28.997 75.489,31.082 L75.097,31.736 L74.388,31.459 C72.067,30.546 69.501,30.748 67.346,32.015 L66.747,32.368 L61.760,27.380 L61.845,26.916 C62.179,25.113 63.567,20.305 69.245,14.627 C74.463,9.408 81.155,8.580 84.681,8.551 L84.940,8.549 ZM75.197,42.704 L75.197,42.705 C74.184,43.717 72.837,44.277 71.405,44.280 C71.401,44.280 71.397,44.280 71.393,44.280 C69.964,44.280 68.623,43.726 67.617,42.719 C65.531,40.633 65.538,37.233 67.631,35.139 C68.644,34.126 69.990,33.567 71.423,33.563 C71.427,33.563 71.431,33.563 71.435,33.563 C72.864,33.563 74.205,34.118 75.211,35.124 C77.293,37.211 77.286,40.611 75.197,42.704 ZM45.710,9.951 C54.177,2.749 66.165,0.942 77.778,5.115 L80.498,6.094 L77.695,6.829 C73.794,7.855 70.221,9.901 67.361,12.745 C63.953,16.153 61.524,19.697 60.141,23.277 C60.079,23.439 60.019,23.602 59.962,23.761 L59.482,25.102 L44.966,10.584 L45.710,9.951 ZM38.590,48.007 L37.613,45.286 C33.439,33.672 35.246,21.682 42.447,13.215 L43.080,12.471 L57.596,26.989 L56.255,27.469 C56.097,27.526 55.938,27.584 55.772,27.648 C52.194,29.029 48.650,31.459 45.240,34.869 C42.397,37.729 40.352,41.303 39.327,45.202 L38.590,48.007 ZM51.249,65.077 L47.080,60.908 C44.970,58.801 43.136,55.832 41.517,53.212 L41.046,52.447 L41.048,52.190 C41.077,48.664 41.905,41.971 47.123,36.752 C52.778,31.096 57.600,29.696 59.411,29.357 L59.876,29.270 L64.861,34.255 L64.508,34.854 C63.242,37.008 63.040,39.575 63.952,41.895 L64.229,42.604 L63.576,42.997 C61.491,44.251 59.560,45.756 57.836,47.470 C53.885,51.420 52.210,58.252 51.501,63.286 L51.249,65.077 ZM53.781,67.600 L53.800,67.213 C53.954,64.257 54.834,54.238 59.720,49.351 C61.392,47.692 63.272,46.251 65.309,45.068 L65.846,44.755 L66.326,45.146 C68.916,47.253 72.595,47.527 75.481,45.829 L76.080,45.476 L82.739,52.136 L81.272,52.560 C78.852,53.258 75.358,54.701 72.452,57.607 C71.638,58.422 70.903,59.317 70.267,60.271 C66.840,65.403 66.323,73.487 66.982,79.341 L67.280,81.976 L53.781,67.600 ZM73.488,85.690 C73.185,85.596 72.893,85.537 72.627,85.482 C72.142,85.381 71.684,85.287 71.006,84.885 L70.687,84.697 L70.596,84.336 C70.449,83.750 67.047,69.888 72.482,61.747 C73.015,60.949 73.631,60.198 74.314,59.515 C77.924,55.904 82.733,54.838 84.634,54.547 L85.082,54.479 L93.126,62.525 L92.180,63.128 C90.735,64.050 89.388,65.132 88.177,66.344 C87.771,66.750 87.375,67.176 87.001,67.610 C84.184,70.887 81.630,80.452 82.466,88.937 L82.619,90.476 L73.488,85.690 ZM106.942,91.673 L105.218,93.398 C103.770,94.845 101.800,95.628 99.810,95.628 C99.013,95.628 98.213,95.503 97.443,95.244 L85.491,91.278 L85.403,90.751 C83.831,81.622 86.558,71.706 90.092,68.172 C91.545,66.718 92.984,65.727 93.936,65.151 L94.789,64.634 L106.942,91.673 Z"></path>
    </g>
</svg>